<?xml version="1.0" standalone="no"?>
<!DOCTYPE svg PUBLIC "-//W3C//DTD SVG 20010904//EN"
 "http://www.w3.org/TR/2001/REC-SVG-20010904/DTD/svg10.dtd">
<svg version="1.0" xmlns="http://www.w3.org/2000/svg"
 width="260.000000pt" height="260.000000pt" viewBox="0 0 260.000000 260.000000"
 preserveAspectRatio="xMidYMid meet">
<metadata>
Created by potrace 1.11, written by Peter Selinger 2001-2013
</metadata>
<g transform="translate(0.000000,260.000000) scale(0.100000,-0.100000)"
fill="#000000" stroke="none">
<path d="M0 2105 l0 -495 88 0 87 0 16 -32 c59 -121 135 -285 143 -310 10 -31
21 -20 56 55 18 39 52 113 76 162 23 50 45 98 48 108 5 16 16 17 93 15 l88 -3
0 -310 0 -310 -67 -3 -68 -3 -2 118 c0 65 0 127 1 138 4 37 -10 85 -24 85 -7
0 -19 -17 -26 -37 -10 -33 -75 -179 -98 -223 -6 -10 -24 -15 -62 -15 -63 0
-49 -20 -150 215 -27 65 -48 87 -50 53 0 -10 -1 -88 -2 -173 l-2 -155 -72 -3
-73 -3 0 -489 0 -490 1300 0 1300 0 0 1300 0 1300 -1300 0 -1300 0 0 -495z
m1877 -527 c86 -42 95 -60 51 -107 -18 -20 -36 -40 -39 -44 -4 -5 -22 -1 -40
9 -126 67 -220 56 -284 -34 -26 -38 -30 -53 -30 -107 0 -55 5 -70 31 -107 50
-72 136 -97 218 -63 l36 15 0 75 c0 47 4 77 12 81 20 12 112 12 120 0 4 -6 8
-60 8 -121 0 -60 -4 -115 -8 -121 -14 -21 -124 -65 -185 -75 -186 -30 -341 62
-391 231 -20 68 -20 114 1 176 41 123 135 205 263 228 64 12 173 -5 237 -36z
m-667 -150 c59 -38 87 -80 102 -150 24 -114 -28 -227 -127 -277 -66 -33 -187
-36 -255 -7 -85 37 -150 137 -150 232 0 82 54 173 125 212 85 47 225 42 305
-10z m1165 36 c66 -12 124 -56 170 -129 15 -23 19 -49 19 -112 0 -79 -1 -84
-39 -138 -55 -81 -112 -109 -225 -109 -75 0 -91 3 -140 29 -65 36 -105 89
-121 164 -30 144 52 268 195 297 34 7 70 11 81 9 11 -2 38 -7 60 -11z"/>
<path d="M1010 1343 c-25 -6 -70 -84 -70 -120 0 -35 12 -63 44 -100 25 -29
105 -32 132 -6 76 77 37 235 -58 232 -18 -1 -40 -3 -48 -6z"/>
<path d="M2230 1320 c-47 -50 -49 -136 -4 -193 18 -23 30 -27 70 -27 58 0 65
4 93 50 27 45 27 103 0 146 -26 42 -47 54 -94 54 -28 0 -44 -7 -65 -30z"/>
</g>
</svg>
